# xmcd
#
# Track frame offsets: 
#        150
#        15539
#        30748
#        47282
#        61013
#        74649
#        89695
#        110842
#        128208
#        143184
#        164271
#        178690
#        193125
#        209289
#        229178
#        246482
#        259969
#        276489
#        294642
#        308423
#        324219
#
# Disc length: 4513 seconds
#
# Revision: 1
# Processed by: cddbd v1.5.2PL0 Copyright (c) Steve Scherf et al.
# Submitted via: ExactAudioCopyFreeDBPlugin 1.0
#
DISCID=3f119f15
DTITLE=Various Artist - Kontor House Of House Vol. 15 [CD2]
DYEAR=2012
DGENRE=House
TTITLE0=Alex C. - Bis 5 Uhr am Morgen
TTITLE1=Azuro - Je Ne Sais Pas (R.I.O. Mix) (feat. Elly)
TTITLE2=Martin Solveig - The Night Out (Madeon Remix)
TTITLE3=Rob and Chris - Mond (feat. Sandberg)
TTITLE4=Bingo Players - Don't Blame The Party (Mode) (feat. Heather Br
TTITLE4=ight)
TTITLE5=Sebastian Ingrosso and Alesso - Calling (Lose My Mind) (feat. Ry
TTITLE5=an Tedder)
TTITLE6=Lykke Li - I Follow Rivers (The Magician Remix)
TTITLE7=Starkillers and Nadia Ali - Keep It Coming (Basto Mix)
TTITLE8=D.O.N.S. - You Used To Hold Me (Avicii Remember Remix) (feat. 
TTITLE8=Terri B.)
TTITLE9=Kaskade - Room For Happiness (feat. Skylar Grey)
TTITLE10=Jerome - Stars
TTITLE11=Tom Novy and Veralovesmusic - The Right Time (Barnes and Heatclif
TTITLE11=f Remix)
TTITLE12=Parachute Youth - Can't Get Better Than This
TTITLE13=Labrinth - Last Time
TTITLE14=Alexandra Burke - Elephant (feat. Erick Morillo)
TTITLE15=Jenny McKay - Unbreakable
TTITLE16=Manufactured Superstars and Jeziel Quintela - Silver Splits The
TTITLE16=Blue (feat. Christian Burns)
TTITLE17=Pascal and Pearce - Disco Sun (feat. Juliet Harding)
TTITLE18=Pink Fluid - I'm Still Awake
TTITLE19=Laurent Wery - Hey Hey Hey (Pop Another Bottle) (Bodybangers 
TTITLE19=Club Mix) (feat. Swift K.I.D. and Dev)
TTITLE20=Die Atzen - Party (Ich Will Abgehn)
EXTD=
EXTT0=
EXTT1=
EXTT2=
EXTT3=
EXTT4=
EXTT5=
EXTT6=
EXTT7=
EXTT8=
EXTT9=
EXTT10=
EXTT11=
EXTT12=
EXTT13=
EXTT14=
EXTT15=
EXTT16=
EXTT17=
EXTT18=
EXTT19=
EXTT20=
PLAYORDER=
